<?xml version="1.0" encoding="UTF-8"?>
<svg version="1.1" xmlns="http://www.w3.org/2000/svg" width="2000" height="2000">
<path d="M0 0 C1.14255855 -0.00165078 2.2851171 -0.00330156 3.46229863 -0.00500236 C6.63486769 -0.0085737 9.80739919 -0.00767784 12.97996787 -0.00490058 C16.44392849 -0.00297538 19.90788348 -0.0068621 23.37184253 -0.00999737 C29.4666877 -0.01470966 35.56152476 -0.01569596 41.65637145 -0.01426902 C50.7807592 -0.01214852 59.90513854 -0.01576035 69.02952499 -0.0204838 C84.57980984 -0.02835956 100.1300924 -0.03144596 115.68037909 -0.03192973 C131.44300879 -0.03243192 147.20563591 -0.03507681 162.96826476 -0.04033732 C163.9632285 -0.04066746 164.95819224 -0.04099759 165.9833064 -0.04133773 C170.03554874 -0.04268771 174.08779108 -0.04405037 178.14003342 -0.04542983 C226.13109181 -0.06173787 274.12214971 -0.06811915 322.1132104 -0.0728777 C346.0078014 -0.07526037 369.90239211 -0.07896374 393.79698289 -0.0829148 C470.43265504 -0.09557977 547.06832718 -0.10636361 623.70400037 -0.10975526 C627.36727326 -0.1099175 631.03054616 -0.11008306 634.69381905 -0.11024964 C642.04064354 -0.11058344 649.38746802 -0.11091392 656.73429251 -0.1112442 C665.33574769 -0.1116311 673.93720286 -0.11202071 682.53865804 -0.11241527 C685.00046995 -0.11252769 687.46228186 -0.1126391 689.92409377 -0.11274952 C768.99165671 -0.11629908 848.05921057 -0.13137771 927.12677004 -0.15468726 C983.93688056 -0.17142841 1040.74698937 -0.18690375 1097.55710238 -0.19142222 C1098.72538385 -0.19151571 1099.89366531 -0.1916092 1101.09734925 -0.19170551 C1126.74392318 -0.19372455 1152.39049709 -0.1948806 1178.0370711 -0.1952341 C1187.21396782 -0.19537027 1196.39086453 -0.19557927 1205.56776124 -0.19582735 C1207.85076663 -0.19588891 1210.13377202 -0.19594723 1212.41677742 -0.1960023 C1248.79782037 -0.19692218 1285.17885384 -0.20689112 1321.55989367 -0.22145979 C1358.20464349 -0.23607534 1394.84938168 -0.24111789 1431.4941339 -0.23304025 C1436.55887637 -0.23192488 1441.62361885 -0.23091422 1446.68836135 -0.22996593 C1447.68118217 -0.22977596 1448.67400299 -0.22958599 1449.69690929 -0.22939027 C1465.41187555 -0.22665753 1481.12682028 -0.23399568 1496.84178185 -0.24553929 C1512.29784892 -0.25668295 1527.75388559 -0.25710846 1543.20995314 -0.24616911 C1552.26872773 -0.24007783 1561.32741049 -0.24215366 1570.38617641 -0.25642108 C1576.4090459 -0.2650832 1582.4318481 -0.26278213 1588.45471347 -0.25172237 C1591.86473157 -0.24576292 1595.27442476 -0.24599014 1598.68445332 -0.25640723 C1617.06005342 -0.30884298 1634.60259869 0.56751323 1652.30101889 5.9401505 C1653.17460044 6.19876866 1654.04818198 6.45738683 1654.94823569 6.72384191 C1683.2836925 15.30687818 1706.9825127 30.01510312 1728.55101889 50.1276505 C1729.34121421 50.85210362 1730.13140952 51.57655675 1730.94555014 52.322963 C1742.98696385 63.80023939 1752.56166243 77.59806269 1760.55101889 92.1276505 C1760.8893978 92.72803136 1761.22777671 93.32841222 1761.57640952 93.94698644 C1780.88382439 128.51944156 1782.87816114 166.52224276 1782.80270118 205.21082616 C1782.8036813 207.95853776 1782.80767744 210.70624329 1782.81150991 213.45395219 C1782.81823072 219.39957189 1782.81768041 225.34515477 1782.81214282 231.29077518 C1782.80389061 240.19158196 1782.80733707 249.0923594 1782.8129081 257.99316692 C1782.82207093 273.16977758 1782.8218263 288.3463748 1782.81634635 303.52298665 C1782.81083175 318.88943687 1782.80969284 334.25587824 1782.81382102 349.622329 C1782.81407936 350.59514796 1782.81433771 351.56796693 1782.81460388 352.57026526 C1782.8156705 356.53281155 1782.81676792 360.49535783 1782.81790443 364.4579041 C1782.82846762 401.31361105 1782.82920736 438.16931208 1782.82360953 475.02501988 C1782.82344394 476.11578955 1782.82327835 477.20655921 1782.82310774 478.3303825 C1782.82294188 479.42290931 1782.82277602 480.51543612 1782.82260514 481.6410698 C1782.81755508 514.95034863 1782.8162577 548.25962502 1782.81865042 581.56890416 C1782.81880538 583.80104727 1782.8189597 586.03319038 1782.81911336 588.2653335 C1782.81973432 597.23580886 1782.82037166 606.20628422 1782.82103289 615.17675958 C1782.82286674 640.25161199 1782.82400806 665.32646441 1782.82460517 690.40131688 C1782.82463246 691.5430845 1782.82465975 692.68485213 1782.82468787 693.86121877 C1782.8255062 730.23279034 1782.82325381 766.60436106 1782.81890601 802.97593236 C1782.81869526 804.74496854 1782.81869526 804.74496854 1782.81848026 806.54974282 C1782.81619047 825.70070392 1782.81375149 844.851665 1782.81129991 864.00262608 C1782.80158754 939.95348294 1782.80203834 1015.90433274 1782.81176108 1091.85518956 C1782.81420354 1110.99658258 1782.81662568 1130.1379756 1782.81890601 1149.27936864 C1782.81911735 1151.04737237 1782.81911735 1151.04737237 1782.81933297 1152.85109335 C1782.82364653 1189.18539039 1782.82547366 1225.51968684 1782.82460517 1261.85398412 C1782.82456441 1263.56537156 1782.82456441 1263.56537156 1782.82452284 1265.31133248 C1782.82389783 1290.3585133 1782.82263045 1315.40569406 1782.82078416 1340.45287482 C1782.8201259 1349.41524139 1782.81949974 1358.37760795 1782.81888274 1367.33997452 C1782.81872796 1369.56949621 1782.8185705 1371.79901791 1782.81841035 1374.0285396 C1782.81602495 1407.3273336 1782.81805257 1440.62612484 1782.82310774 1473.9249185 C1782.82335613 1475.56107299 1782.82335613 1475.56107299 1782.82360953 1477.23028111 C1782.8237749 1478.31903095 1782.82394026 1479.40778079 1782.82411064 1480.52952305 C1782.82963156 1517.28077946 1782.82758877 1554.03202878 1782.81704804 1590.78328419 C1782.81594338 1594.73318012 1782.81486997 1598.68307606 1782.81382102 1602.632972 C1782.8135606 1603.60231729 1782.81330019 1604.57166257 1782.81303189 1605.57038195 C1782.80909373 1620.89256276 1782.81182651 1636.21473472 1782.81735903 1651.53691473 C1782.82266165 1666.61864648 1782.82077055 1681.70036336 1782.81133085 1696.78209323 C1782.80601385 1705.61283189 1782.80606934 1714.44352969 1782.81429405 1723.27426635 C1782.81921713 1729.15487433 1782.81676254 1735.0354508 1782.80856034 1740.91605501 C1782.80412364 1744.23933379 1782.80371149 1747.56246662 1782.81019337 1750.88575138 C1782.83334993 1763.67361651 1782.62134453 1776.38388385 1781.6720075 1789.14066148 C1781.59607998 1790.17340537 1781.52015247 1791.20614925 1781.44192412 1792.27018841 C1779.4622649 1816.13779887 1772.14755502 1839.22167287 1760.55101889 1860.1276505 C1760.19781577 1860.76541417 1759.84461264 1861.40317784 1759.48070639 1862.06026769 C1751.52597722 1876.2314174 1741.72783023 1888.38618599 1730.55101889 1900.1276505 C1729.85879233 1900.88433019 1729.16656577 1901.64100987 1728.45336264 1902.42061925 C1701.87491134 1930.53539722 1658.79339969 1950.79998132 1620.00714747 1952.22084028 C1617.03836904 1952.256447 1614.07102723 1952.26136468 1611.10203779 1952.255301 C1609.95947924 1952.25695178 1608.81692069 1952.25860256 1607.63973916 1952.26030336 C1604.4671701 1952.2638747 1601.2946386 1952.26297884 1598.12206991 1952.26020158 C1594.6581093 1952.25827638 1591.19415431 1952.26216309 1587.73019525 1952.26529837 C1581.63535008 1952.27001066 1575.54051303 1952.27099696 1569.44566634 1952.26957002 C1560.32127859 1952.26744952 1551.19689925 1952.27106134 1542.0725128 1952.2757848 C1526.52222795 1952.28366056 1510.97194539 1952.28674696 1495.42165869 1952.28723073 C1479.659029 1952.28773292 1463.89640188 1952.29037781 1448.13377303 1952.29563832 C1446.64132742 1952.29613352 1446.64132742 1952.29613352 1445.11873139 1952.29663873 C1441.06648904 1952.29798871 1437.0142467 1952.29935137 1432.96200437 1952.30073083 C1384.97094598 1952.31703887 1336.97988808 1952.32342015 1288.98882739 1952.3281787 C1265.09423639 1952.33056137 1241.19964568 1952.33426474 1217.3050549 1952.3382158 C1140.66938275 1952.35088077 1064.0337106 1952.36166461 987.39803742 1952.36505626 C983.73476453 1952.3652185 980.07149163 1952.36538406 976.40821874 1952.36555064 C969.06139425 1952.36588444 961.71456977 1952.36621492 954.36774528 1952.3665452 C945.7662901 1952.3669321 937.16483492 1952.36732171 928.56337974 1952.36771626 C926.10156784 1952.36782868 923.63975593 1952.3679401 921.17794402 1952.36805052 C842.11038108 1952.37160008 763.04282722 1952.38667871 683.97526775 1952.40998826 C627.16515723 1952.42672941 570.35504842 1952.44220475 513.54493541 1952.44672322 C512.37665394 1952.44681671 511.20837247 1952.44691019 510.00468854 1952.44700651 C484.3581146 1952.44902555 458.7115407 1952.4501816 433.06496668 1952.4505351 C423.88806997 1952.45067127 414.71117326 1952.45088027 405.53427655 1952.45112835 C403.25127116 1952.45118991 400.96826576 1952.45124823 398.68526037 1952.4513033 C362.30421742 1952.45222318 325.92318395 1952.46219212 289.54214412 1952.47676079 C252.89739429 1952.49137633 216.25265611 1952.49641889 179.60790389 1952.48834124 C174.54316142 1952.48722588 169.47841894 1952.48621522 164.41367644 1952.48526692 C162.92444521 1952.48498197 162.92444521 1952.48498197 161.4051285 1952.48469126 C145.69016224 1952.48195852 129.97521751 1952.48929668 114.26025594 1952.50084029 C98.80418886 1952.51198395 83.3481522 1952.51240946 67.89208465 1952.50147011 C58.83331006 1952.49537883 49.7746273 1952.49745466 40.71586138 1952.51172208 C34.69299188 1952.5203842 28.67018969 1952.51808313 22.64732432 1952.50702337 C19.23730622 1952.50106391 15.82761303 1952.50129114 12.41758447 1952.51170823 C-5.95801563 1952.56414398 -23.50056091 1951.68778777 -41.19898111 1946.3151505 C-42.50935342 1945.92722325 -42.50935342 1945.92722325 -43.8461979 1945.53145909 C-72.18165471 1936.94842282 -95.88047491 1922.24019788 -117.44898111 1902.1276505 C-118.23917642 1901.40319737 -119.02937173 1900.67874425 -119.84351236 1899.932338 C-131.88492606 1888.45506161 -141.45962465 1874.65723831 -149.44898111 1860.1276505 C-149.95654947 1859.22707921 -149.95654947 1859.22707921 -150.47437173 1858.30831456 C-169.78178661 1823.73585944 -171.77612335 1785.73305824 -171.70066339 1747.04447484 C-171.70164351 1744.29676324 -171.70563965 1741.54905771 -171.70947212 1738.80134881 C-171.71619293 1732.85572911 -171.71564262 1726.91014623 -171.71010503 1720.96452582 C-171.70185282 1712.06371903 -171.70529928 1703.1629416 -171.71087032 1694.26213408 C-171.72003314 1679.08552342 -171.71978851 1663.9089262 -171.71430856 1648.73231435 C-171.70879396 1633.36586413 -171.70765505 1617.99942275 -171.71178323 1602.632972 C-171.71204158 1601.66015303 -171.71229992 1600.68733407 -171.71256609 1599.68503574 C-171.71363271 1595.72248945 -171.71473014 1591.75994317 -171.71586665 1587.7973969 C-171.72642983 1550.94168995 -171.72716957 1514.08598892 -171.72157174 1477.23028111 C-171.72140615 1476.13951145 -171.72124056 1475.04874179 -171.72106995 1473.9249185 C-171.72090409 1472.83239169 -171.72073823 1471.73986488 -171.72056735 1470.6142312 C-171.71551729 1437.30495236 -171.71421991 1403.99567597 -171.71661264 1370.68639684 C-171.7167676 1368.45425373 -171.71692191 1366.22211061 -171.71707558 1363.9899675 C-171.71769653 1355.01949214 -171.71833387 1346.04901678 -171.7189951 1337.07854142 C-171.72082895 1312.00368901 -171.72197028 1286.92883659 -171.72256738 1261.85398412 C-171.72260832 1260.14133268 -171.72260832 1260.14133268 -171.72265008 1258.39408223 C-171.72346841 1222.02251066 -171.72121602 1185.65093994 -171.71686822 1149.27936864 C-171.71672772 1148.10001119 -171.71658723 1146.92065373 -171.71644247 1145.70555818 C-171.71415268 1126.55459708 -171.71171371 1107.403636 -171.70926212 1088.25267492 C-171.69954975 1012.30181806 -171.70000055 936.35096826 -171.70972329 860.40011144 C-171.71216575 841.25871842 -171.71458789 822.1173254 -171.71686822 802.97593236 C-171.71700912 801.7972632 -171.71715001 800.61859405 -171.71729518 799.40420764 C-171.72160874 763.06991061 -171.72343587 726.73561416 -171.72256738 690.40131688 C-171.72254021 689.26039192 -171.72251304 688.11946696 -171.72248505 686.94396852 C-171.72186004 661.8967877 -171.72059267 636.84960694 -171.71874637 611.80242618 C-171.71808812 602.84005961 -171.71746195 593.87769305 -171.71684495 584.91532648 C-171.71669017 582.68580479 -171.71653271 580.45628309 -171.71637256 578.22676139 C-171.71398716 544.9279674 -171.71601478 511.62917615 -171.72106995 478.3303825 C-171.72123554 477.23961284 -171.72140113 476.14884317 -171.72157174 475.02501988 C-171.72173711 473.93627005 -171.72190247 472.84752021 -171.72207285 471.72577795 C-171.72759377 434.97452154 -171.72555098 398.22327221 -171.71501026 361.47201681 C-171.71390559 357.52212088 -171.71283218 353.57222494 -171.71178323 349.622329 C-171.71152282 348.65298371 -171.7112624 347.68363843 -171.7109941 346.68491905 C-171.70705594 331.36273824 -171.70978873 316.04056628 -171.71532124 300.71838627 C-171.72062387 285.63665452 -171.71873276 270.55493764 -171.70929307 255.47320777 C-171.70397607 246.6424691 -171.70403156 237.81177131 -171.71225626 228.98103464 C-171.71717935 223.10042667 -171.71472475 217.2198502 -171.70652255 211.33924599 C-171.70208585 208.01596721 -171.7016737 204.69283437 -171.70815559 201.36954962 C-171.73131214 188.58168449 -171.51930674 175.87141715 -170.56996971 163.11463952 C-170.4940422 162.08189563 -170.41811468 161.04915175 -170.33988633 159.98511259 C-168.36022712 136.11750213 -161.04551723 113.03362812 -149.44898111 92.1276505 C-149.09577798 91.48988683 -148.74257486 90.85212316 -148.37866861 90.19503331 C-140.42393944 76.0238836 -130.62579245 63.86911501 -119.44898111 52.1276505 C-118.75675454 51.37097081 -118.06452798 50.61429112 -117.35132486 49.83468175 C-106.26740199 38.1100697 -92.52762734 28.86904859 -78.44898111 21.1276505 C-77.84860025 20.78927159 -77.24821939 20.45089269 -76.62964517 20.10225987 C-53.57685383 7.22814362 -26.38698049 -0.05389115 0 0 Z " fill="#D58C45" transform="translate(194.44898110628128,23.872349500656128)"/>
<path d="M0 0 C44.22 0 88.44 0 134 0 C136.21489108 21.04146523 136.21489108 21.04146523 136.9375 31.625 C140.80362876 84.20668475 150.11144494 139.00411162 165.87890625 189.40625 C166.82835393 192.44977568 167.70586282 195.50393444 168.5625 198.57446289 C183.56502529 254.81925955 183.56502529 254.81925955 215.60721257 301.37340661 C217.46391392 303.54179073 217.3761301 304.81099647 217.37834883 307.64268172 C217.39038334 309.08469496 217.39038334 309.08469496 217.40266097 310.55583978 C217.39298326 312.14668975 217.39298326 312.14668975 217.38311005 313.76967812 C217.38806956 314.8975685 217.39302908 316.02545889 217.39813888 317.18752778 C217.41119985 321.0065285 217.40267694 324.82518557 217.39440918 328.64419556 C217.39763332 331.39416891 217.40535919 334.1441255 217.41286707 336.89409006 C217.42681607 342.89373967 217.42950256 348.89331388 217.42490768 354.89297676 C217.41809223 363.81521166 217.42831221 372.73736986 217.44186524 381.65959412 C217.46682148 398.52349436 217.47129186 415.38736303 217.46939927 432.25127877 C217.46802745 445.27833671 217.47183777 458.30538364 217.47932434 471.33243942 C217.48037467 473.20254236 217.48142229 475.0726453 217.4824672 476.94274824 C217.48298655 477.87104634 217.48350589 478.79934445 217.48404097 479.7557728 C217.48456112 480.68576031 217.48508126 481.61574783 217.48561716 482.57391679 C217.48640315 483.97120916 217.48640315 483.97120916 217.48720502 485.39672966 C217.50179738 511.61311737 217.51006709 537.82950103 217.50545502 564.04589272 C217.50528306 565.03499947 217.50511111 566.02410622 217.50493394 567.0431859 C217.50404503 572.05656954 217.50310022 577.06995316 217.50213593 582.08333679 C217.5019449 583.07903605 217.50175387 584.07473531 217.50155704 585.10060728 C217.50116995 587.11415927 217.50077962 589.12771126 217.50038607 591.14126324 C217.49442104 622.44576823 217.50982848 653.75019921 217.54199219 685.0546875 C217.57808811 720.21628728 217.59739872 755.37784012 217.59245348 790.53945959 C217.5919835 794.29101967 217.59157325 798.04257976 217.59120178 801.79413986 C217.5910482 803.17975283 217.5910482 803.17975283 217.59089152 804.59335798 C217.5896975 818.52833093 217.6016539 832.46325315 217.62034607 846.39821243 C217.64160935 862.25771095 217.64540677 878.11710321 217.62604648 893.9766065 C217.61573789 902.84695073 217.61914499 911.71703564 217.64257733 920.5873563 C217.65686015 926.5216757 217.65278218 932.45580421 217.63413157 938.39011089 C217.62402803 941.76578193 217.62431553 945.14054172 217.64145225 948.51624437 C217.7508191 971.64192632 215.07415871 992.30480238 198.30078125 1009.7265625 C197.54152344 1010.47679687 196.78226563 1011.22703125 196 1012 C195.31292969 1012.70898438 194.62585937 1013.41796875 193.91796875 1014.1484375 C180.72545857 1026.92485737 163.38422461 1031.38526732 145.56640625 1031.140625 C129.35067667 1030.72850152 114.90457923 1025.11233052 103 1014 C101.84951172 1012.98486328 101.84951172 1012.98486328 100.67578125 1011.94921875 C89.05829185 1001.16014115 80.66701547 985.15638171 79.90965348 969.08253343 C79.87308919 966.83043959 79.86954889 964.58047082 79.87695217 962.32808876 C79.87579833 961.46347186 79.87464448 960.59885496 79.87345567 959.70803756 C79.87080307 956.80294851 79.87530004 953.89791459 79.87974548 950.99282837 C79.87930951 948.89225132 79.87843411 946.79167432 79.87715632 944.69109762 C79.8749166 938.9126473 79.87892554 933.13421545 79.88393438 927.35576749 C79.88824616 921.1267759 79.88679194 914.89778538 79.8860321 908.66879272 C79.88550733 897.87455567 79.8886144 887.08032605 79.89426994 876.28609085 C79.90018642 864.9648193 79.90403578 853.64355016 79.90512276 842.32227707 C79.9051915 841.61842534 79.90526024 840.91457362 79.90533106 840.18939305 C79.90566939 836.61490399 79.90597077 833.04041492 79.90625793 829.46592586 C79.9083585 804.14606482 79.91509627 778.82620692 79.92456055 753.50634766 C79.9337445 728.90804053 79.94082835 704.30973427 79.94506836 679.71142578 C79.94519989 678.95323454 79.94533141 678.19504329 79.94546692 677.41387655 C79.94678544 669.79982711 79.94806125 662.18577767 79.94930578 654.57172822 C79.95184201 639.0609515 79.95466327 623.55017483 79.95765686 608.03939819 C79.9578628 606.96965124 79.9578628 606.96965124 79.95807289 605.87829324 C79.96727397 558.25219415 79.98319606 510.62609696 80 463 C71.42 463 62.84 463 54 463 C54.00368717 465.60850105 54.00737434 468.21700211 54.01117325 470.90454865 C54.07526312 516.57034686 54.13421 562.23614729 54.16937256 607.90197754 C54.16992479 608.61732503 54.17047702 609.33267253 54.17104598 610.06969722 C54.18301879 625.61770765 54.19409935 641.16571859 54.20426132 656.71373031 C54.20925048 664.33893881 54.21443672 671.96414717 54.21972656 679.58935547 C54.2202496 680.34813825 54.22077263 681.10692104 54.22131152 681.88869724 C54.23834403 706.46430151 54.26837963 731.03986888 54.30518888 755.61545081 C54.34295963 780.8789765 54.36755113 806.1424818 54.37565996 831.40603526 C54.37681251 834.97779777 54.37811505 838.54956021 54.37950897 842.12132263 C54.37991351 843.17573987 54.37991351 843.17573987 54.38032622 844.25145847 C54.38504531 855.54766044 54.40357648 866.84379917 54.42732814 878.1399754 C54.45093437 889.50813448 54.45953479 900.87621223 54.45400551 912.24440169 C54.45144646 918.39921635 54.45533797 924.55384603 54.4768219 930.7086277 C54.49637239 936.35088554 54.49721488 941.99283504 54.48359558 947.63510746 C54.4819138 949.66903228 54.48691548 951.70297681 54.49953273 953.7368632 C54.63385976 976.74039703 49.86518572 995.06250675 33.828125 1012.33984375 C21.52085587 1024.4199653 4.08827294 1031.0251543 -13 1031.25 C-31.7172993 1031.02914691 -48.28111795 1024.92645565 -62 1012 C-62.69351563 1011.34773438 -63.38703125 1010.69546875 -64.1015625 1010.0234375 C-70.22925268 1003.70647504 -74.56926305 996.06939501 -78 988 C-78.34231002 987.23820088 -78.68462004 986.47640177 -79.03730309 985.69151783 C-83.59406468 973.61107278 -82.57399897 960.72466033 -82.54830933 948.01245117 C-82.55502255 945.23861256 -82.56769339 942.46480796 -82.58004677 939.69098949 C-82.60366083 933.67030381 -82.61247547 927.6497391 -82.61140442 921.62900925 C-82.6098135 912.67584037 -82.63096273 903.72282355 -82.65623556 894.76969543 C-82.7056305 876.91733982 -82.72327089 859.06502157 -82.73330853 841.21260701 C-82.73383088 840.28894759 -82.73435324 839.36528817 -82.73489141 838.41363907 C-82.73541196 837.48809039 -82.73593251 836.56254171 -82.73646883 835.6089461 C-82.7426393 825.34145428 -82.75565054 815.07397274 -82.7688942 804.80648804 C-82.80817554 773.78836065 -82.84099449 742.77024432 -82.84664726 711.75209045 C-82.84683538 710.76069441 -82.84702351 709.76929836 -82.84721733 708.74786001 C-82.84797427 704.73032 -82.84870227 700.71277999 -82.84942329 696.69523997 C-82.84996672 693.67150113 -82.85052008 690.64776228 -82.85107422 687.62402344 C-82.85125026 686.62486654 -82.85142631 685.62570964 -82.85160769 684.59627526 C-82.85742093 653.18939838 -82.90164137 621.78276749 -82.97412109 590.37597656 C-83.05557714 555.07882219 -83.10296438 519.78183546 -83.10356629 484.48458195 C-83.10375993 480.72089193 -83.10409337 476.95720196 -83.10452652 473.19351196 C-83.10465886 471.80346778 -83.10465886 471.80346778 -83.10479388 470.38534191 C-83.10703297 455.47678115 -83.14184003 440.56846713 -83.18816516 425.65998581 C-83.23385402 410.67847637 -83.24229827 395.69730017 -83.21306656 380.71574664 C-83.19676751 371.81755053 -83.20812899 362.92040439 -83.25942825 354.0223357 C-83.2909479 348.07492348 -83.28596319 342.128256 -83.2516148 336.18086154 C-83.23307643 332.79382065 -83.23558834 329.41044368 -83.27154694 326.02329957 C-83.51306354 301.70561343 -83.51306354 301.70561343 -74.39757264 292.28864574 C-73.60637367 291.53339265 -72.8151747 290.77813955 -72 290 C-51.17479074 260.54371158 -40.63519419 221.80268658 -30.97827148 187.46508789 C-30.32558132 185.15322577 -29.65968594 182.84505152 -28.98071289 180.54077148 C-26.49616322 172.07593397 -24.46491408 163.56307218 -22.625 154.9375 C-22.3232386 153.53512199 -22.02131458 152.13277896 -21.71923828 150.73046875 C-21.10440607 147.87033233 -20.49327832 145.00943649 -19.88476562 142.14794922 C-19.06493796 138.29531765 -18.22803179 134.44650667 -17.390625 130.59765625 C-13.82220377 113.99915965 -11.02323166 97.35405934 -8.53149414 80.56738281 C-8.01496584 77.10045054 -7.48469616 73.63592611 -6.94921875 70.171875 C-6.63273818 68.11459477 -6.31632575 66.05730405 -6 64 C-5.87157715 63.17177734 -5.7431543 62.34355469 -5.61083984 61.49023438 C-2.50571427 41.04992762 -1.5145041 20.6982227 0 0 Z " fill="#FEFEFE" transform="translate(930,622)"/>
<path d="M0 0 C5.98520648 4.71806817 5.98520648 4.71806817 8.46411133 7.41186523 C12.84731995 11.84104009 16.2269137 12.53063275 22.37548828 12.59326172 C23.97239502 12.57223389 23.97239502 12.57223389 25.6015625 12.55078125 C27.92329515 12.58040623 30.24493132 12.6185184 32.56640625 12.6640625 C34.38954346 12.69814209 34.38954346 12.69814209 36.24951172 12.73291016 C67.87815143 13.82102339 111.00269242 17.67008537 135.15625 40.6875 C139.29178502 45.46653113 140.73109575 49.03805594 140.5078125 55.30859375 C139.23672737 62.23600771 133.28135446 67.12717202 127.84375 71.13671875 C97.00857566 90.11881772 57.61876718 92.04402826 22.50634766 92.10351562 C19.07299227 92.11318569 15.64024627 92.1442974 12.20703125 92.17578125 C-21.72367739 92.33703369 -66.17087167 88.87996648 -92.3515625 64.5625 C-93.9609375 62.86328125 -93.9609375 62.86328125 -94.9609375 60.86328125 C-93.58908852 69.66469438 -87.89320592 75.62801555 -80.96484375 80.83203125 C-63.50799704 92.63640093 -44.08558262 99.99130827 -23.9609375 105.86328125 C-22.78015625 106.22035156 -21.599375 106.57742188 -20.3828125 106.9453125 C2.45519459 113.48907937 26.36031975 116.66674904 50.0390625 117.86328125 C50.81806235 141.35312295 35.6290767 168.09886572 20.19140625 184.87060547 C12.79012859 192.70821089 5.36489187 200.33100959 -3.9609375 205.86328125 C-5.01410156 206.51425781 -6.06726562 207.16523437 -7.15234375 207.8359375 C-34.73662502 224.52335245 -68.2542655 230.73425306 -99.9609375 223.86328125 C-132.80656503 215.7482819 -160.62502788 195.88410484 -179.12109375 167.5546875 C-187.66875925 153.30857833 -192.6650858 138.07674524 -195.9609375 121.86328125 C-196.1360083 121.10072021 -196.3110791 120.33815918 -196.49145508 119.55249023 C-199.39728588 102.90780676 -197.96441286 82.90562654 -192.9609375 66.86328125 C-192.74663086 66.17282715 -192.53232422 65.48237305 -192.31152344 64.77099609 C-186.14116671 45.60876016 -175.75294332 29.46658153 -161.9609375 14.86328125 C-160.85685547 13.64511719 -160.85685547 13.64511719 -159.73046875 12.40234375 C-118.8625351 -30.99844341 -47.34728025 -34.16749644 0 0 Z " fill="#FEFEFE" transform="translate(1069.9609375,364.13671875)"/>
<path d="M0 0 C31.08199012 -1.5662817 60.0178207 10.7872864 83.09814453 31.42041016 C118.11331524 63.57888943 137.91029262 108.02687312 151 153 C151.20544434 153.70205566 151.41088867 154.40411133 151.62255859 155.12744141 C164.85512691 201.07474489 170.98224525 249.67155543 173.7734375 297.30273438 C174.00709679 301.11581232 174.28431047 304.92430627 174.5625 308.734375 C177.69983629 354.32443894 176.84456952 400.54788212 175.125 446.1875 C175.08588501 447.24115753 175.04677002 448.29481506 175.00646973 449.38040161 C174.56713699 460.78307278 173.91150683 472.16674714 173.0703125 483.546875 C172.99821564 484.58841232 172.92611877 485.62994965 172.85183716 486.70304871 C172.25731203 494.25812036 171.01846669 500.44766681 167 507 C166.5565625 507.72574219 166.113125 508.45148438 165.65625 509.19921875 C158.86656752 519.10083903 149.60305279 525.62043221 138.0625 528.8125 C122.66146365 529.75542059 110.75363717 527.96295822 98.25 518.3125 C90.47480393 511.13396166 84.61734019 500.2564939 83.82519531 489.66210938 C83.54564163 482.42692789 83.60087124 475.20562698 84.48071289 468.01538086 C85.16385668 461.99658539 85.35715276 455.97350501 85.546875 449.921875 C85.56756798 449.27062401 85.58826096 448.61937302 85.60958099 447.94838715 C86.26555636 426.7228479 86.24602059 405.4836639 86.25 384.25 C86.25044186 383.16643597 86.25088371 382.08287193 86.25133896 380.96647263 C86.26264083 328.00071268 84.72964236 275.21461728 75 223 C74.72857178 221.50412354 74.72857178 221.50412354 74.45166016 219.97802734 C69.32782333 191.79953634 62.88869662 162.77739325 50 137 C49.67 170.33 49.34 203.66 49 238 C46.12493982 233.68740972 44.67784793 228.98913505 42.9375 224.125 C42.54191895 223.02019287 42.14633789 221.91538574 41.73876953 220.77709961 C37.09338686 207.64089789 32.94424546 194.3618325 29 181 C28.69352539 179.96423828 28.38705078 178.92847656 28.07128906 177.86132812 C17.97605938 143.26518984 11.75653741 107.69527162 6.32498169 72.11764526 C6.02862092 70.18649962 5.72548703 68.25639649 5.42163086 66.32641602 C1.95037125 44.23762858 -0.22815696 22.35938199 0 0 Z " fill="#FEFEFE" transform="translate(1098,622)"/>
<path d="M0 0 C0.1432501 9.42068355 -0.21450861 18.73754636 -1 28.125 C-1.05980042 28.84733826 -1.11960083 29.56967651 -1.18121338 30.31390381 C-2.4381718 45.01080025 -4.5815099 59.55849247 -6.875 74.125 C-7.1220166 75.70332611 -7.1220166 75.70332611 -7.37402344 77.3135376 C-9.69512724 92.03732168 -12.4287338 106.65258388 -15.43505859 121.25115967 C-15.93772193 123.69697303 -16.43313122 126.14404839 -16.92382812 128.59228516 C-24.2252905 164.96731542 -33.61771463 201.71110772 -48 236 C-48.33 236 -48.66 236 -49 236 C-49.33 202.67 -49.66 169.34 -50 135 C-57.82254066 153.96647725 -57.82254066 153.96647725 -64.25 173.3125 C-64.56807617 174.41094238 -64.88615234 175.50938477 -65.21386719 176.64111328 C-68.78408493 189.28727572 -71.4437803 202.11758791 -74 215 C-74.39534819 216.93239099 -74.79115403 218.86468842 -75.1875 220.796875 C-77.08825791 230.22334268 -78.55627382 239.59589716 -79.50390625 249.1640625 C-79.96017764 253.7653617 -80.52855239 258.34946816 -81.10351562 262.93725586 C-88.91702208 325.7580402 -88.50531992 389.75145379 -85.71191406 452.91577148 C-85.26693732 462.99376235 -84.89332077 473.05968849 -84.8359375 483.1484375 C-84.8261084 484.05004105 -84.8162793 484.95164459 -84.80615234 485.88056946 C-84.80615234 496.59787904 -88.45135333 504.61900694 -95 513 C-95.47824219 513.61617187 -95.95648437 514.23234375 -96.44921875 514.8671875 C-102.78890609 522.05323108 -113.34406867 527.38553694 -122.87988281 528.15087891 C-135.95932686 528.90557786 -146.65934512 527.26897582 -157.12890625 518.71484375 C-167.92390031 508.82131057 -172.59082957 498.82280394 -173.5 484.2578125 C-173.5825 482.94167969 -173.665 481.62554688 -173.75 480.26953125 C-173.79125 479.58455566 -173.8325 478.89958008 -173.875 478.19384766 C-173.99590459 476.1927822 -174.12284667 474.19208436 -174.25 472.19140625 C-175.5293362 451.71905555 -176.1666529 431.2652009 -176.203125 410.75390625 C-176.20595238 409.64555861 -176.20877975 408.53721096 -176.21169281 407.39527702 C-176.22654148 401.50969091 -176.23585646 395.62412831 -176.24023438 389.73852539 C-176.24457936 384.99918757 -176.25833699 380.26003587 -176.28125 375.52075195 C-176.47759241 333.96440916 -175.45342026 292.51621462 -170.00268555 251.26879883 C-169.54969905 247.84062312 -169.11999455 244.41006294 -168.69335938 240.97851562 C-166.08823779 220.31893811 -162.9404004 199.78202171 -158.1875 179.5 C-158.01603455 178.76096436 -157.84456909 178.02192871 -157.66790771 177.26049805 C-143.377781 115.82164766 -117.97699102 51.10493406 -62.57421875 15.7890625 C-42.8473545 3.91198852 -22.9080533 -0.66578842 0 0 Z " fill="#FEFEFE" transform="translate(897,622)"/>
<path d="M0 0 C11.82253529 -0.0929009 23.64498296 -0.1638669 35.46780968 -0.20724869 C40.9583264 -0.22807546 46.44859239 -0.2563033 51.93896484 -0.30175781 C57.2428291 -0.34539075 62.54645298 -0.369174 67.85048294 -0.37950897 C69.86858526 -0.38686908 71.88667523 -0.40124138 73.90467453 -0.42292023 C95.53858599 -0.6459714 95.53858599 -0.6459714 104.5859375 5.859375 C110.7233451 12.34519439 115.09220128 19.00586871 115.14717102 28.16542053 C115.15790398 29.39932526 115.15790398 29.39932526 115.16885376 30.65815735 C115.17154266 31.55221786 115.17423157 32.44627838 115.17700195 33.36743164 C115.18357315 34.31595001 115.19014435 35.26446838 115.19691467 36.24172974 C115.21662523 39.38120609 115.22830732 42.52063458 115.23828125 45.66015625 C115.24235678 46.73498198 115.2464323 47.8098077 115.25063133 48.9172039 C115.27148573 54.60975832 115.28578838 60.3022887 115.29516602 65.99487305 C115.30620961 71.8566915 115.34058796 77.71812819 115.38033772 83.57981205 C115.40656665 88.10191014 115.41486359 92.62391828 115.41844749 97.14608574 C115.42329973 99.30569464 115.43487453 101.4652999 115.45348549 103.62483406 C115.6681533 130.19213622 115.6681533 130.19213622 106.83984375 139.4921875 C102.75491426 142.83992165 97.9577509 145.94302888 92.56640625 146.046875 C88.63351363 144.44259003 86.61976329 141.50751092 84 138.25 C82.84753082 136.87312861 81.69118707 135.49949227 80.53125 134.12890625 C79.94472656 133.43555176 79.35820313 132.74219727 78.75390625 132.02783203 C54.98360423 104.54507472 22.19702717 86.70198464 -14 83 C-21.20527126 82.50990123 -28.42181951 82.51185068 -35.640625 82.48828125 C-37.62987329 82.47137807 -39.61911128 82.4532206 -41.6083374 82.43388367 C-46.77014945 82.38698842 -51.93191974 82.35679212 -57.09387207 82.33044434 C-62.39079036 82.30032842 -67.68756526 82.25390739 -72.984375 82.20898438 C-83.32284071 82.12364214 -93.66133651 82.05599509 -104 82 C-104 81.67 -104 81.34 -104 81 C-103.04222656 80.78085937 -102.08445312 80.56171875 -101.09765625 80.3359375 C-62.81205637 71.33242519 -30.62163563 50.88967128 -9.57373047 17.04614258 C-7.21716659 13.17164788 -5.01435922 9.22465038 -2.84863281 5.24047852 C-2.04610077 3.76527489 -2.04610077 3.76527489 -1.22735596 2.26026917 C-0.82232849 1.51438034 -0.41730103 0.76849152 0 0 Z " fill="#FEFEFD" transform="translate(1126,523)"/>
<path d="M0 0 C2.04836472 0.00747048 4.09673663 0.01315959 6.14511108 0.01715088 C11.50787466 0.03234364 16.87019738 0.07157019 22.23278809 0.1159668 C27.71632933 0.15705725 33.19994256 0.1751912 38.68359375 0.1953125 C49.42206753 0.23807098 60.1602157 0.30624458 70.8984375 0.390625 C71.17747421 0.9318248 71.45651093 1.4730246 71.7440033 2.03062439 C73.02904141 4.51637896 74.32110112 6.99841986 75.61328125 9.48046875 C76.05200562 10.33169312 76.49072998 11.18291748 76.94274902 12.05993652 C82.72168302 23.12978194 90.35246416 32.31805119 98.8984375 41.390625 C99.548125 42.11636719 100.1978125 42.84210937 100.8671875 43.58984375 C107.89935591 51.12237799 116.38199348 56.68619388 124.8984375 62.390625 C125.77371094 62.99003906 126.64898438 63.58945312 127.55078125 64.20703125 C141.26126033 73.05016978 157.15921369 77.72460199 172.8984375 81.390625 C172.8984375 81.720625 172.8984375 82.050625 172.8984375 82.390625 C171.28922676 82.39942436 171.28922676 82.39942436 169.64750671 82.40840149 C159.45499654 82.46602809 149.26269161 82.53899131 139.07039165 82.62633991 C133.83250707 82.67075302 128.59469509 82.71007008 123.35668945 82.73706055 C118.28607341 82.76338735 113.21574135 82.80398819 108.14530373 82.85381126 C106.22682079 82.8702841 104.30828896 82.88191851 102.38974571 82.88823891 C65.63131729 83.02138649 33.74295211 93.98274052 5.8984375 118.390625 C5.37362793 118.84840332 4.84881836 119.30618164 4.30810547 119.77783203 C-4.17119742 127.22179884 -11.51467955 134.99570857 -18.11328125 144.1953125 C-20.1015625 146.390625 -20.1015625 146.390625 -23.8515625 146.578125 C-31.43692187 145.05541345 -36.42485418 139.48230096 -40.875 133.515625 C-44.2953895 127.58985465 -44.40323262 121.9712847 -44.40795898 115.32128906 C-44.4162825 114.32210449 -44.42460602 113.32291992 -44.43318176 112.29345703 C-44.45723183 108.99768143 -44.46604825 105.70210399 -44.47265625 102.40625 C-44.48162697 100.10707542 -44.4907489 97.80790143 -44.50001526 95.50872803 C-44.51649468 90.69037459 -44.52420338 85.87209054 -44.52709961 81.05371094 C-44.53247956 74.89579791 -44.57014904 68.73854202 -44.61584377 62.58081436 C-44.64566626 57.83141734 -44.65282432 53.0821775 -44.65382576 48.33269501 C-44.65801837 46.06340274 -44.67041384 43.79410959 -44.69134331 41.52490997 C-44.71836183 38.34196922 -44.71340015 35.16053799 -44.70092773 31.97753906 C-44.71576202 31.05044128 -44.73059631 30.12334351 -44.74588013 29.16815186 C-44.66077567 21.49637387 -42.35915698 15.06643605 -37.22323704 9.27115631 C-26.54161498 -1.09374856 -13.89735823 -0.14929573 0 0 Z " fill="#FEFEFE" transform="translate(798.1015625,522.609375)"/>
<path d="M0 0 C2.64 0 5.28 0 8 0 C9.99609375 2.0546875 9.99609375 2.0546875 11.4375 4.875 C20.21970155 20.28341218 32.98546484 29.2622965 50 34 C52.71561411 34.53356641 55.23308663 34.8339852 58 35 C56.87977343 43.34375654 53.64553591 48.62787929 47.5 54.3125 C40.3873753 59.11352167 34.51704413 60.15861701 26.07421875 60.09765625 C25.41087524 60.09664917 24.74753174 60.09564209 24.06408691 60.09460449 C21.60520682 60.08940423 19.14635153 60.07544313 16.6875 60.0625 C8.4271875 60.0315625 8.4271875 60.0315625 0 60 C0 40.2 0 20.4 0 0 Z " fill="#FEFCFA" transform="translate(1163,1132)"/>
<path d="M0 0 C2.64 0 5.28 0 8 0 C8 19.8 8 39.6 8 60 C2.43125 60.0825 -3.1375 60.165 -8.875 60.25 C-10.61120605 60.28641602 -12.34741211 60.32283203 -14.13623047 60.36035156 C-23.9485137 60.48009722 -32.15370547 59.80088386 -40.3125 53.75 C-45.9410726 47.99053037 -48.56798042 43.06436549 -49 35 C-48.20078125 34.84144531 -47.4015625 34.68289063 -46.578125 34.51953125 C-34.4647889 31.9461582 -24.30950689 28.33322901 -15 20 C-14.31164062 19.40445312 -13.62328125 18.80890625 -12.9140625 18.1953125 C-7.85062111 13.51987428 -4.93523722 8.58423318 -2.03125 2.34375 C-1.02578125 1.18359375 -1.02578125 1.18359375 0 0 Z " fill="#FEFDFC" transform="translate(823,1132)"/>
</svg>
